<svg width="287" height="282" viewBox="0 0 287 282" fill="none" xmlns="http://www.w3.org/2000/svg">
<g style="mix-blend-mode:multiply" opacity="0.12" clip-path="url(#clip0_2234_9664)">
<path d="M143.598 -5C64.2155 -5 0 59.2155 0 138.598C0 217.784 64.2155 282.197 143.598 282.197C222.784 282.197 287.197 217.981 287.197 138.598C287 59.2155 222.784 -5 143.598 -5ZM143.598 272.939C69.337 272.939 9.25806 212.86 9.25806 138.598C9.25806 64.337 69.337 4.25806 143.598 4.25806C217.86 4.25806 277.939 64.337 277.939 138.598C277.939 212.663 217.663 272.939 143.598 272.939Z" fill="#FFCF2D"/>
<path d="M143.6 25.9258C81.5509 25.9258 31.124 76.3527 31.124 138.401C31.124 200.45 81.5509 250.877 143.6 250.877C205.648 250.877 256.075 200.647 256.075 138.598C256.075 76.3527 205.648 25.9258 143.6 25.9258ZM143.6 233.74C91.006 233.74 48.2613 190.995 48.2613 138.401C48.2613 85.8077 91.006 43.063 143.6 43.063C196.193 43.063 238.938 85.8077 238.938 138.401C238.938 190.995 196.193 233.74 143.6 233.74Z" fill="#FFCF2D"/>
</g>
<defs>
<clipPath id="clip0_2234_9664">
<rect width="287" height="287" fill="white" transform="translate(0 -5)"/>
</clipPath>
</defs>
</svg>
